<svg width="137" height="30" viewBox="0 0 137 30" fill="none" xmlns="http://www.w3.org/2000/svg">
<path d="M12.8933 0.394692C14.2381 0.394692 15.5684 0.613965 16.884 1.05251C18.1997 1.49106 19.296 2.20735 20.1731 3.20139C21.0795 4.19543 21.5326 5.52568 21.5326 7.19216C21.5326 8.04002 21.3426 8.80016 20.9625 9.4726C20.6117 10.145 20.1731 10.7298 19.6469 11.2268C19.1206 11.7238 18.5944 12.1185 18.0681 12.4109C17.5711 12.7032 17.1764 12.9079 16.884 13.0248C16.7086 13.0833 16.6209 13.1418 16.6209 13.2002C16.6209 13.2295 16.6355 13.2441 16.6648 13.2441C17.191 13.3026 17.8342 13.5072 18.5944 13.8581C19.3837 14.1797 20.1585 14.6474 20.9187 15.2614C21.6788 15.8754 22.3074 16.6209 22.8044 17.498C23.3307 18.3459 23.5938 19.3253 23.5938 20.4363C23.5938 21.8396 23.1699 23.1552 22.322 24.3832C21.5034 25.6111 20.4216 26.6198 19.0768 27.4091C17.8196 28.1401 16.4162 28.564 14.8667 28.6809C13.3172 28.7979 11.753 28.8417 10.1743 28.8125C9.94038 28.8125 9.61878 28.8125 9.20947 28.8125C8.80016 28.8125 8.347 28.8125 7.84998 28.8125C6.97289 28.8125 6.00808 28.8125 4.95557 28.8125C3.9323 28.8125 2.98211 28.8125 2.10502 28.8125C1.22793 28.8125 0.584728 28.8125 0.175419 28.8125C0.0877093 28.6663 0.0292365 28.4032 0 28.0231C0 27.643 0.0584728 27.3799 0.175419 27.2337C0.380074 27.2045 0.687056 27.1753 1.09637 27.146C1.50568 27.0875 1.90037 27.0145 2.28044 26.9267C2.66051 26.8098 2.87979 26.6636 2.93826 26.4882C3.11368 26.0497 3.21601 25.4942 3.24524 24.8217C3.27448 24.1493 3.2891 23.3599 3.2891 22.4536V6.70976C3.2891 5.77419 3.27448 4.98481 3.24524 4.34161C3.21601 3.66917 3.11368 3.11368 2.93826 2.67513C2.87979 2.47048 2.66051 2.3243 2.28044 2.23659C1.90037 2.14888 1.50568 2.0904 1.09637 2.06117C0.687056 2.03193 0.380074 2.01731 0.175419 2.01731C0.0584728 1.87113 0 1.59339 0 1.18408C0.0292365 0.774766 0.0877093 0.511638 0.175419 0.394692C1.14022 0.453166 2.17811 0.497021 3.2891 0.526257C4.40008 0.526257 5.40874 0.526257 6.31507 0.526257C7.2214 0.526257 8.23005 0.511639 9.34103 0.482403C10.452 0.423929 11.6361 0.394692 12.8933 0.394692ZM9.29718 14.472V24.0323C9.29718 24.0323 9.29718 24.0616 9.29718 24.12C9.29718 24.3247 9.29718 24.7194 9.29718 25.3041C9.32642 25.8596 9.42874 26.2543 9.60416 26.4882C9.77958 26.7221 10.1304 26.8683 10.6567 26.9267C11.2122 26.9852 11.7677 27.0145 12.3231 27.0145C12.9956 27.0145 13.668 26.839 14.3405 26.4882C15.0421 26.1081 15.6269 25.4942 16.0946 24.6463C16.5917 23.7692 16.8402 22.5998 16.8402 21.1379C16.8402 20.0562 16.6794 19.0183 16.3578 18.0243C16.0362 17.001 15.4807 16.1531 14.6913 15.4807C13.9312 14.8082 12.864 14.472 11.4899 14.472H9.29718ZM9.29718 12.8056H11.4899C12.5717 12.8056 13.4488 12.3816 14.1212 11.5338C14.8229 10.6567 15.1737 9.41413 15.1737 7.80612C15.1737 5.75958 14.8521 4.31237 14.2089 3.46452C13.5949 2.58742 12.7325 2.14888 11.6215 2.14888C11.1537 2.14888 10.7005 2.17811 10.262 2.23659C9.85267 2.26582 9.58955 2.39739 9.4726 2.63128C9.38489 2.86517 9.32642 3.15753 9.29718 3.50837C9.29718 3.85921 9.29718 4.26852 9.29718 4.7363C9.29718 4.82401 9.29718 4.91172 9.29718 4.99943C9.29718 5.08714 9.29718 5.17485 9.29718 5.26256V12.8056Z" fill="black"/>
<path d="M33.7766 22.4536V16.5332C33.7766 16.2993 33.6889 16.0069 33.5135 15.6561C33.2796 15.1883 32.9434 14.5597 32.5048 13.7704C32.0955 12.9517 31.6424 12.0893 31.1453 11.1829C30.6483 10.2474 30.1659 9.37027 29.6981 8.55165C29.2596 7.7038 28.8941 7.01674 28.6018 6.49048C28.3094 5.96423 28.1632 5.7011 28.1632 5.7011C27.8416 5.11637 27.6077 4.69245 27.4616 4.42932C27.3154 4.13695 27.1107 3.7715 26.8476 3.33295C26.526 2.8067 26.029 2.45586 25.3565 2.28044C24.6841 2.07579 24.2017 1.95884 23.9093 1.9296C23.7924 1.78342 23.7485 1.5203 23.7778 1.14022C23.7778 0.730912 23.8216 0.467784 23.9093 0.350838C24.7572 0.438548 25.7659 0.511639 26.9353 0.570111C28.1048 0.599347 29.1427 0.613965 30.049 0.613965C30.9553 0.613965 31.9786 0.599347 33.1188 0.570111C34.2883 0.511639 35.2823 0.438548 36.1009 0.350838C36.1886 0.467784 36.2325 0.730912 36.2325 1.14022C36.2617 1.5203 36.2179 1.78342 36.1009 1.9296C35.9255 1.9296 35.6185 1.95884 35.18 2.01731C34.7707 2.04655 34.376 2.14888 33.9959 2.3243C33.6451 2.47048 33.4696 2.71899 33.4696 3.06982C33.4696 3.15753 33.4989 3.25986 33.5574 3.37681C33.6158 3.49375 33.6889 3.62532 33.7766 3.7715L38.9076 13.2002C38.9661 13.2587 39.1854 12.981 39.5654 12.367C39.9455 11.7238 40.4133 10.9198 40.9688 9.955C41.5535 8.96096 42.1382 7.92307 42.723 6.84132C43.3077 5.75958 43.834 4.79477 44.3017 3.94692C44.3894 3.7715 44.4479 3.59608 44.4772 3.42066C44.5064 3.24524 44.521 3.08444 44.521 2.93826C44.521 2.67513 44.2871 2.47048 43.8193 2.3243C43.3808 2.17811 42.913 2.07579 42.416 2.01731C41.919 1.95884 41.5681 1.9296 41.3635 1.9296C41.2465 1.78342 41.1881 1.5203 41.1881 1.14022C41.2173 0.730912 41.2758 0.467784 41.3635 0.350838C42.3867 0.438548 43.1908 0.511639 43.7755 0.570111C44.3894 0.599347 45.1935 0.613965 46.1875 0.613965C47.1231 0.613965 47.9271 0.584729 48.5995 0.526257C49.3012 0.438547 50.0905 0.380074 50.9676 0.350838C51.0554 0.467784 51.0992 0.730912 51.0992 1.14022C51.1284 1.5203 51.0846 1.78342 50.9676 1.9296C50.7922 1.9296 50.4852 1.95884 50.0467 2.01731C49.6374 2.04655 49.2135 2.13426 48.7749 2.28044C48.3656 2.42662 48.044 2.66052 47.8101 2.98212C47.6347 3.24524 47.2985 3.7715 46.8015 4.56088C46.3044 5.35027 45.7197 6.28583 45.0473 7.36758C44.4041 8.42009 43.7316 9.51645 43.03 10.6567C42.3575 11.7677 41.7435 12.8056 41.1881 13.7704C40.6326 14.7059 40.2379 15.4222 40.004 15.9192C39.8578 16.2701 39.7847 16.5478 39.7847 16.7525V22.4536C39.7847 22.5413 39.7847 22.6436 39.7847 22.7606C39.7847 22.8483 39.7847 22.936 39.7847 23.0237C39.7847 23.7838 39.7993 24.4563 39.8286 25.041C39.8578 25.6257 39.9455 26.1081 40.0917 26.4882C40.1794 26.6636 40.3987 26.8098 40.7495 26.9267C41.1296 27.0437 41.5243 27.1314 41.9336 27.1899C42.3721 27.2191 42.6791 27.2483 42.8545 27.2776C42.9715 27.4238 43.0153 27.6869 42.9861 28.067C42.9861 28.447 42.9422 28.7102 42.8545 28.8563C42.0359 28.7686 41.0273 28.6955 39.8286 28.6371C38.6591 28.5786 37.6212 28.5494 36.7149 28.5494C35.8086 28.5494 34.7853 28.5786 33.6451 28.6371C32.5341 28.6955 31.5547 28.7686 30.7068 28.8563C30.6191 28.7102 30.5606 28.447 30.5314 28.067C30.5314 27.6869 30.5899 27.4238 30.7068 27.2776C30.9115 27.2483 31.2038 27.2191 31.5839 27.1899C31.9932 27.1314 32.3879 27.0437 32.768 26.9267C33.148 26.8098 33.3673 26.6636 33.4258 26.4882C33.6012 26.0497 33.7035 25.4942 33.7328 24.8217C33.762 24.1493 33.7766 23.3599 33.7766 22.4536Z" fill="black"/>
<path d="M61.1769 0C62.4633 0 63.6473 0.131564 64.7291 0.394692C65.8401 0.628584 67.0534 0.891711 68.369 1.18408C68.486 2.3243 68.5737 3.46452 68.6321 4.60474C68.7199 5.74496 68.7929 6.97289 68.8514 8.28852C68.7345 8.46394 68.5737 8.55165 68.369 8.55165C68.369 8.55165 68.3544 8.55165 68.3252 8.55165C68.2082 8.55165 67.9743 8.55165 67.6235 8.55165C67.3019 8.52242 67.1265 8.42009 67.0972 8.24467C67.0095 7.63071 66.8195 6.95827 66.5271 6.22736C66.2348 5.49645 65.8401 4.79477 65.343 4.12234C64.846 3.4499 64.2613 2.89441 63.5889 2.45586C62.9457 2.01731 62.2148 1.79804 61.3961 1.79804C60.8406 1.79804 60.2851 1.91499 59.7297 2.14888C59.1742 2.35353 58.7064 2.7336 58.3263 3.2891C57.9462 3.81535 57.7562 4.56088 57.7562 5.52568C57.7562 6.40278 58.0924 7.26525 58.7649 8.11311C59.4373 8.93173 60.2413 9.70649 61.1769 10.4374C62.1417 11.1391 63.0626 11.7823 63.9397 12.367C64.8753 12.981 65.8254 13.6534 66.7903 14.3843C67.7843 15.086 68.6029 15.9777 69.2461 17.0595C69.9185 18.112 70.2548 19.4861 70.2548 21.1818C70.2548 22.7313 69.8016 24.1054 68.8953 25.3041C67.9889 26.5028 66.8195 27.4384 65.3869 28.1108C63.9836 28.7833 62.4925 29.1195 60.9137 29.1195C59.6566 29.1195 58.2971 29.0025 56.8353 28.7686C55.4027 28.5347 54.0432 28.2716 52.7568 27.9793C52.6106 27.3361 52.4644 26.5174 52.3182 25.5234C52.172 24.5294 52.0405 23.5792 51.9235 22.6728C51.8358 21.7373 51.7773 21.0795 51.7481 20.6994C51.8358 20.5532 52.0259 20.4216 52.3182 20.3047C52.6398 20.1877 52.8591 20.1293 52.976 20.1293C53.3269 20.1293 53.5169 20.2316 53.5462 20.4363C53.6339 21.021 53.8678 21.708 54.2478 22.4974C54.6279 23.2576 55.1103 24.0177 55.695 24.7779C56.309 25.5088 57.0107 26.1227 57.8001 26.6198C58.6187 27.0875 59.5104 27.3214 60.4752 27.3214C61.5862 27.3214 62.551 27.0145 63.3696 26.4005C64.2174 25.7573 64.6414 24.6755 64.6414 23.1552C64.6414 22.3951 64.4075 21.6788 63.9397 21.0064C63.5012 20.3047 62.9457 19.6615 62.2732 19.0768C61.6008 18.492 60.8991 17.9512 60.1682 17.4541C59.4373 16.9571 58.8087 16.5332 58.2825 16.1824C57.2592 15.4807 56.2651 14.7644 55.3003 14.0335C54.3355 13.3026 53.5462 12.4401 52.9322 11.4461C52.3475 10.452 52.0551 9.20947 52.0551 7.71842C52.0551 6.22736 52.5083 4.91172 53.4146 3.7715C54.3209 2.60204 55.4758 1.68109 56.8791 1.00866C58.2825 0.336219 59.715 0 61.1769 0Z" fill="black"/>
<path d="M82.7451 22.629C82.7451 22.629 82.7451 22.6582 82.7451 22.7167C82.7451 22.8629 82.7451 23.1552 82.7451 23.5938C82.7451 24.0031 82.7597 24.4416 82.789 24.9094C82.8474 25.3772 82.9352 25.7427 83.0521 26.0058C83.1983 26.2982 83.5637 26.5174 84.1485 26.6636C84.7332 26.8098 85.3033 26.8829 85.8588 26.8829H128.281C129.1 26.8829 129.845 26.7659 130.518 26.5321C131.22 26.2982 131.804 25.9473 132.272 25.4795C132.74 25.0118 133.149 24.4563 133.5 23.8131C133.851 23.1699 134.216 22.3659 134.596 21.4011C134.655 21.2256 134.845 21.1379 135.166 21.1379C135.4 21.1379 135.663 21.1672 135.956 21.2256C136.248 21.2841 136.424 21.3426 136.482 21.4011C136.219 22.1612 135.927 22.9944 135.605 23.9008C135.283 24.8071 134.991 25.6842 134.728 26.5321C134.465 27.3799 134.275 28.1254 134.158 28.7686H79.763C78.2427 28.7686 76.9124 28.7686 75.7722 28.7686C74.632 28.7979 73.9157 28.8125 73.6234 28.8125C73.5356 28.6663 73.4772 28.4032 73.4479 28.0231C73.4479 27.643 73.5064 27.3799 73.6234 27.2337C73.828 27.2045 74.135 27.1753 74.5443 27.146C74.9536 27.0875 75.3483 27.0145 75.7284 26.9267C76.1084 26.8098 76.3277 26.6636 76.3862 26.4882C76.5616 26.0497 76.6639 25.4942 76.6932 24.8217C76.7224 24.1493 76.737 23.3599 76.737 22.4536V6.70976C76.737 5.77419 76.7224 4.98481 76.6932 4.34161C76.6639 3.66917 76.5616 3.11368 76.3862 2.67513C76.3277 2.47048 76.1084 2.3243 75.7284 2.23659C75.3483 2.11964 74.9536 2.04655 74.5443 2.01731C74.135 1.95884 73.828 1.9296 73.6234 1.9296C73.5064 1.78342 73.4479 1.5203 73.4479 1.14022C73.4772 0.730912 73.5356 0.467784 73.6234 0.350838C74.4712 0.438548 75.4799 0.511639 76.6493 0.570111C77.8188 0.599347 78.8567 0.613965 79.763 0.613965C80.6693 0.613965 81.6926 0.599347 82.8328 0.570111C84.0023 0.511639 84.9963 0.438548 85.8149 0.350838C85.9026 0.467784 85.9465 0.730912 85.9465 1.14022C85.9757 1.5203 85.9319 1.78342 85.8149 1.9296C85.6395 1.9296 85.3325 1.95884 84.894 2.01731C84.4847 2.04655 84.09 2.11964 83.7099 2.23659C83.3591 2.3243 83.1398 2.47048 83.0521 2.67513C82.9059 3.05521 82.8182 3.53761 82.789 4.12234C82.7597 4.70706 82.7451 5.3795 82.7451 6.13965C82.7451 6.22736 82.7451 6.32969 82.7451 6.44663C82.7451 6.53434 82.7451 6.62205 82.7451 6.70976V22.629Z" fill="black"/>
<path d="M93.2468 0.512306C93.9998 0.512306 94.8499 0.500512 95.7973 0.476922C96.7689 0.429743 97.5948 0.370769 98.2749 0.299999C98.3478 0.394358 98.3842 0.606666 98.3842 0.936923C98.4085 1.24359 98.3721 1.4559 98.2749 1.57385C98.1292 1.57385 97.8741 1.59744 97.5098 1.64461C97.1697 1.6682 96.8418 1.72718 96.526 1.82154C96.2345 1.89231 96.0523 2.01026 95.9794 2.17538C95.858 2.48205 95.7851 2.87128 95.7608 3.34308C95.7365 3.81487 95.7244 4.35744 95.7244 4.97077C95.7244 5.04154 95.7244 5.1241 95.7244 5.21846C95.7244 5.28923 95.7244 5.36 95.7244 5.43077V18.1338C95.7244 18.2046 95.7244 18.2872 95.7244 18.3815C95.7244 18.4523 95.7244 18.5231 95.7244 18.5938C95.7244 19.2072 95.7365 19.7497 95.7608 20.2215C95.7851 20.6933 95.858 21.0826 95.9794 21.3892C96.0523 21.5308 96.2345 21.6487 96.526 21.7431C96.8418 21.8374 97.1697 21.9082 97.5098 21.9554C97.8741 21.979 98.1292 22.0026 98.2749 22.0262C98.3721 22.1441 98.4085 22.3564 98.3842 22.6631C98.3842 22.9697 98.3478 23.1821 98.2749 23.3C97.5948 23.2292 96.7567 23.1703 95.7608 23.1231C94.7892 23.0759 93.9269 23.0523 93.1739 23.0523C92.4209 23.0523 91.5707 23.0759 90.6234 23.1231C89.676 23.1703 88.8502 23.2292 88.1457 23.3C88.0729 23.1821 88.0243 22.9697 88 22.6631C88 22.3564 88.0486 22.1441 88.1457 22.0262C88.3158 22.0026 88.5708 21.979 88.9109 21.9554C89.251 21.9082 89.5789 21.8374 89.8947 21.7431C90.2104 21.6487 90.3926 21.5308 90.4412 21.3892C90.5869 21.0354 90.672 20.5872 90.6963 20.0446C90.7205 19.502 90.7327 18.8651 90.7327 18.1338V5.43077C90.7327 4.6759 90.7205 4.03897 90.6963 3.52C90.672 2.97744 90.5869 2.52923 90.4412 2.17538C90.3926 2.01026 90.2104 1.89231 89.8947 1.82154C89.5789 1.72718 89.251 1.6682 88.9109 1.64461C88.5708 1.59744 88.3158 1.57385 88.1457 1.57385C88.0486 1.4559 88 1.24359 88 0.936923C88.0243 0.606666 88.0729 0.394358 88.1457 0.299999C88.8502 0.370769 89.6882 0.429743 90.6598 0.476922C91.6314 0.500512 92.4938 0.512306 93.2468 0.512306Z" fill="black"/>
<path d="M105.656 0.476922C106.264 0.476922 106.859 0.453333 107.442 0.406154C108.049 0.358974 108.705 0.323589 109.409 0.299999C109.676 0.842563 110.041 1.63282 110.502 2.67077C110.988 3.70872 111.535 4.9 112.142 6.24461C112.749 7.58923 113.393 9.01641 114.073 10.5262C114.777 12.0123 115.458 13.4867 116.113 14.9492C116.113 14.9492 116.126 14.961 116.15 14.9846C116.198 15.0082 116.235 15.02 116.259 15.02C116.283 15.02 116.308 14.9964 116.332 14.9492C116.381 14.8785 116.405 14.8313 116.405 14.8077C116.405 14.8077 116.551 14.4656 116.842 13.7815C117.134 13.0738 117.498 12.1774 117.935 11.0923C118.372 10.0072 118.822 8.86308 119.283 7.66C119.769 6.45692 120.206 5.33641 120.595 4.29846C120.789 3.80308 120.971 3.26051 121.142 2.67077C121.336 2.05744 121.494 1.52667 121.615 1.07846C121.737 0.630256 121.797 0.406154 121.797 0.406154C121.919 0.406154 122.235 0.417948 122.745 0.441538C123.279 0.465127 123.838 0.488717 124.421 0.512306C125.004 0.512306 125.404 0.512306 125.623 0.512306C126.23 0.512306 126.898 0.488717 127.627 0.441538C128.356 0.370768 129.072 0.323589 129.777 0.299999C129.85 0.370769 129.91 0.571282 129.959 0.901538C130.032 1.23179 130.02 1.46769 129.923 1.60923C129.777 1.60923 129.473 1.64461 129.012 1.71538C128.574 1.76256 128.259 1.84513 128.064 1.96308C127.894 2.08102 127.761 2.23436 127.664 2.42308C127.591 2.5882 127.566 2.90667 127.591 3.37846C127.615 3.9682 127.639 4.85282 127.664 6.03231C127.712 7.1882 127.761 8.47384 127.809 9.88923C127.858 11.3046 127.906 12.72 127.955 14.1354C128.004 15.5508 128.052 16.8128 128.101 17.9215C128.149 18.5821 128.198 19.219 128.247 19.8323C128.295 20.4221 128.404 20.941 128.574 21.3892C128.647 21.5544 128.842 21.6841 129.157 21.7785C129.497 21.8728 129.838 21.9436 130.178 21.9908C130.518 22.0144 130.736 22.0262 130.833 22.0262C131.028 22.4272 131.052 22.8518 130.906 23.3C130.202 23.2528 129.412 23.1938 128.538 23.1231C127.664 23.0523 126.838 23.0169 126.06 23.0169C125.234 23.0169 124.299 23.0523 123.255 23.1231C122.21 23.1938 121.275 23.2528 120.449 23.3C120.376 23.2292 120.328 23.0405 120.303 22.7338C120.303 22.4036 120.328 22.1677 120.376 22.0262C120.522 22.0262 120.777 22.0026 121.142 21.9554C121.506 21.9082 121.858 21.8374 122.198 21.7431C122.563 21.6487 122.793 21.519 122.89 21.3538C122.988 21.2123 123.06 21.0236 123.109 20.7877C123.158 20.5282 123.182 20.3159 123.182 20.1508C123.182 19.962 123.182 19.6436 123.182 19.1954C123.182 18.7236 123.17 18.3344 123.145 18.0277L122.781 5.99692C122.781 5.94974 122.769 5.78461 122.745 5.50154C122.72 5.21846 122.648 5.07692 122.526 5.07692C122.477 5.07692 122.417 5.15949 122.344 5.32462L116.077 21.7785C116.053 21.8728 115.955 22.0379 115.785 22.2738C115.615 22.5097 115.421 22.7338 115.202 22.9462C114.984 23.1349 114.765 23.2292 114.547 23.2292C114.474 23.2292 114.364 23.2056 114.219 23.1585L106.312 5.07692C106.264 6.5159 106.215 7.74256 106.166 8.75692C106.142 9.74769 106.118 10.6205 106.094 11.3754C106.069 12.1067 106.045 12.8144 106.021 13.4985C105.996 14.1826 105.972 14.9256 105.948 15.7277C105.923 16.5062 105.887 17.4379 105.838 18.5231C105.814 18.9005 105.826 19.3723 105.875 19.9385C105.923 20.481 105.96 20.8113 105.984 20.9292C106.033 21.1179 106.203 21.2831 106.494 21.4246C106.786 21.5662 107.114 21.6841 107.478 21.7785C107.867 21.8492 108.207 21.9082 108.498 21.9554C108.814 22.0026 109.008 22.0262 109.081 22.0262C109.13 22.1441 109.166 22.3446 109.191 22.6277C109.215 22.8872 109.203 23.1113 109.154 23.3C108.45 23.2528 107.733 23.1938 107.004 23.1231C106.276 23.0523 105.523 23.0169 104.745 23.0169C103.92 23.0169 103.179 23.0523 102.523 23.1231C101.867 23.1938 101.126 23.2528 100.3 23.3C100.227 23.1821 100.191 22.9933 100.191 22.7338C100.191 22.4508 100.215 22.2267 100.264 22.0615C100.41 22.0615 100.701 22.0262 101.138 21.9554C101.575 21.861 102.013 21.7195 102.45 21.5308C102.887 21.3421 103.167 21.1062 103.288 20.8231C103.337 20.7051 103.385 20.4456 103.434 20.0446C103.507 19.62 103.567 19.1836 103.616 18.7354C103.664 18.2872 103.689 17.9687 103.689 17.78C103.737 16.9779 103.786 16.0108 103.834 14.8785C103.883 13.7462 103.932 12.5667 103.98 11.34C104.029 10.1133 104.077 8.93385 104.126 7.80154C104.175 6.66923 104.211 5.69026 104.235 4.86461C104.26 4.01538 104.284 3.42564 104.308 3.09538C104.308 2.97743 104.296 2.84769 104.272 2.70615C104.272 2.56461 104.223 2.43487 104.126 2.31692C103.98 2.1282 103.64 1.96308 103.106 1.82154C102.571 1.65641 102.146 1.57385 101.831 1.57385C101.733 1.43231 101.697 1.19641 101.721 0.866152C101.77 0.512306 101.806 0.323589 101.831 0.299999C102.389 0.323589 102.839 0.347178 103.179 0.370768C103.543 0.394358 103.907 0.417948 104.272 0.441538C104.66 0.465127 105.122 0.476922 105.656 0.476922Z" fill="black"/>
</svg>
